G04 Layer_Physical_Order=2*
G04 Layer_Color=16711680*
%FSLAX44Y44*%
%MOMM*%
G71*
G01*
G75*
%ADD10C,1.0160*%
%ADD11C,0.5080*%
%ADD12C,1.2700*%
%ADD13C,1.5240*%
%ADD14C,0.5000*%
%ADD15O,2.0000X1.3500*%
%ADD16R,2.0000X1.3500*%
%ADD17R,1.6000X3.0000*%
%ADD18O,1.6000X3.0000*%
%ADD19R,1.5000X1.5000*%
%ADD20C,0.5080*%
%ADD21R,3.0000X1.5000*%
%ADD22O,3.0000X1.5000*%
%ADD23C,0.5000*%
%ADD24C,3.0000*%
%ADD25O,3.0000X1.6000*%
%ADD26C,2.0000*%
%ADD27O,1.6000X3.0000*%
%ADD28O,2.5000X1.5240*%
%ADD29O,2.5000X1.4000*%
%ADD30C,3.5000*%
%ADD31O,2.0000X1.5000*%
%ADD32R,3.0000X1.7000*%
%ADD33O,3.0000X1.7000*%
%ADD34R,1.6000X2.5428*%
%ADD35R,3.0000X1.6000*%
%ADD36O,3.0000X1.6000*%
%ADD37O,2.5000X1.5000*%
%ADD38R,2.5000X2.0000*%
%ADD39O,2.5000X2.0000*%
%ADD40C,2.3000*%
%ADD41R,2.5000X1.6000*%
%ADD42O,2.5000X1.6000*%
G36*
X1350010Y255270D02*
X488732D01*
X485140Y258862D01*
X485238Y1273810D01*
X1350010D01*
Y255270D01*
D02*
G37*
%LPC*%
G36*
X775335Y418465D02*
X765622D01*
Y415910D01*
X769769Y405899D01*
X775335Y403593D01*
Y418465D01*
D02*
G37*
G36*
X1105208Y570865D02*
X1090295D01*
Y560611D01*
X1092350D01*
X1102744Y564916D01*
X1105208Y570865D01*
D02*
G37*
G36*
X1271905Y580657D02*
Y565785D01*
X1281618D01*
Y568340D01*
X1277471Y578351D01*
X1271905Y580657D01*
D02*
G37*
G36*
X715645Y765175D02*
X703273D01*
X705579Y759609D01*
X715590Y755462D01*
X715645D01*
Y765175D01*
D02*
G37*
G36*
X633095Y314325D02*
X618223D01*
X620529Y308759D01*
X630540Y304613D01*
X633095D01*
Y314325D01*
D02*
G37*
G36*
X1253756Y473075D02*
X1215124D01*
X1215554Y472036D01*
X1213663Y465897D01*
X1213295Y465006D01*
X1207957Y452120D01*
X1213663Y438343D01*
X1218118Y436498D01*
Y419257D01*
X1212792Y406400D01*
X1219133Y391093D01*
X1234440Y384752D01*
X1249747Y391093D01*
X1256088Y406400D01*
X1250762Y419257D01*
Y436498D01*
X1255217Y438343D01*
X1260923Y452120D01*
X1255715Y464694D01*
X1255585Y465006D01*
X1255585Y465006D01*
X1255217Y465897D01*
X1253373Y472150D01*
X1253756Y473075D01*
D02*
G37*
G36*
X1229995Y491678D02*
X1227440D01*
X1217429Y487531D01*
X1215124Y481965D01*
X1229995D01*
Y491678D01*
D02*
G37*
G36*
X1071121Y442595D02*
X1061085D01*
Y432559D01*
X1068182Y435498D01*
X1071121Y442595D01*
D02*
G37*
G36*
X775335Y442226D02*
X769769Y439921D01*
X765622Y429910D01*
Y427355D01*
X775335D01*
Y442226D01*
D02*
G37*
G36*
X1241440Y491678D02*
X1238885D01*
Y481965D01*
X1253756D01*
X1251451Y487531D01*
X1241440Y491678D01*
D02*
G37*
G36*
X1081405Y570865D02*
X1066492D01*
X1068956Y564916D01*
X1079350Y560611D01*
X1081405D01*
Y570865D01*
D02*
G37*
G36*
X1281618Y556895D02*
X1271905D01*
Y542024D01*
X1277471Y544329D01*
X1281618Y554340D01*
Y556895D01*
D02*
G37*
G36*
X1063625Y508266D02*
Y493395D01*
X1073338D01*
Y495950D01*
X1069191Y505961D01*
X1063625Y508266D01*
D02*
G37*
G36*
X814705Y997216D02*
X809139Y994911D01*
X804992Y984900D01*
Y982345D01*
X814705D01*
Y997216D01*
D02*
G37*
G36*
X990600Y1238063D02*
X811530D01*
X799988Y1233282D01*
X747828Y1181122D01*
X741960D01*
X728474Y1175536D01*
X722888Y1162050D01*
X728149Y1149350D01*
X722888Y1136650D01*
X728149Y1123950D01*
X722888Y1111250D01*
X728149Y1098550D01*
X722888Y1085850D01*
X728474Y1072364D01*
X741960Y1066778D01*
X751720D01*
X757018Y1068973D01*
X760874Y1059664D01*
X774360Y1054078D01*
X784120D01*
X797606Y1059664D01*
X803192Y1073150D01*
X801181Y1078004D01*
X804004Y1082227D01*
X958006D01*
X961401Y1077148D01*
X954484Y1060450D01*
X952541Y1057542D01*
X951250D01*
X937856Y1051994D01*
X932308Y1038600D01*
X937856Y1025206D01*
X951250Y1019658D01*
X956250D01*
X969644Y1025206D01*
X973720Y1035046D01*
X984250Y1030684D01*
X995521Y1035353D01*
X998399Y1031046D01*
X962950Y995597D01*
X942613D01*
X939800Y996762D01*
X938750Y997464D01*
Y1002900D01*
X902750D01*
Y1002900D01*
X901288Y1001923D01*
X895350Y1004383D01*
X882650Y999123D01*
X869950Y1004383D01*
X857250Y999123D01*
X844550Y1004383D01*
X831664Y999045D01*
X830773Y998677D01*
X824634Y996786D01*
X823595Y997216D01*
Y977900D01*
Y958584D01*
X824004Y958753D01*
X828227Y955930D01*
Y936401D01*
X806338Y914512D01*
X801557Y902970D01*
Y864870D01*
X802738Y862019D01*
X798432Y859142D01*
X774812Y882762D01*
X763270Y887542D01*
X742590D01*
Y889220D01*
X697590D01*
Y853220D01*
X697590D01*
X698567Y851758D01*
X696107Y845820D01*
X701367Y833120D01*
X696107Y820420D01*
X698643Y814296D01*
X695821Y810072D01*
X685520D01*
Y811250D01*
X650520D01*
Y776250D01*
X685520D01*
Y777428D01*
X700094D01*
X702341Y774065D01*
X720090D01*
X736907D01*
X736476Y775104D01*
X738367Y781243D01*
X738736Y782134D01*
X744073Y795020D01*
X742063Y799874D01*
X744885Y804098D01*
X751429D01*
X797448Y758078D01*
X808990Y753298D01*
X823646D01*
X826469Y749074D01*
X824458Y744220D01*
X829719Y731520D01*
X824458Y718820D01*
X830006Y705426D01*
X832117Y699053D01*
X831625Y697865D01*
X850900D01*
Y688975D01*
X831625D01*
X832117Y687787D01*
X830006Y681414D01*
X829115Y679262D01*
X792480D01*
X780938Y674482D01*
X779791Y671712D01*
X777173Y670627D01*
X770832Y655320D01*
X776882Y640715D01*
X772363Y629805D01*
X766898Y629734D01*
X766843Y629755D01*
X763575Y631108D01*
X736913Y657771D01*
X731587Y670627D01*
X716280Y676968D01*
X700973Y670627D01*
X694632Y655320D01*
X700973Y640013D01*
X703077Y633642D01*
X701799Y630555D01*
X716280D01*
Y621665D01*
X701799D01*
X704738Y614568D01*
X711628Y611714D01*
Y606216D01*
X704738Y603362D01*
X701799Y596265D01*
X716280D01*
Y587375D01*
X701799D01*
X704738Y580278D01*
X705705Y579878D01*
Y574798D01*
X700973Y572837D01*
X700867Y572583D01*
X685520D01*
Y573760D01*
X650520D01*
Y538760D01*
X685520D01*
Y539938D01*
X706489D01*
X716280Y535882D01*
X731587Y542223D01*
X735345Y551295D01*
X740844D01*
X741866Y548826D01*
X800286Y490406D01*
X800286Y490406D01*
X835055Y455638D01*
X834845Y453125D01*
X830580Y449393D01*
X817880Y444133D01*
X805180Y449393D01*
X792294Y444055D01*
X791403Y443687D01*
X785264Y441796D01*
X784225Y442226D01*
Y422910D01*
Y402661D01*
X787588Y400414D01*
Y373340D01*
X784513Y365918D01*
X778510Y368405D01*
X767412Y363808D01*
X764208Y363808D01*
X753110Y368405D01*
X742012Y363808D01*
X738808Y363808D01*
X727710Y368405D01*
X716612Y363808D01*
X714680Y363424D01*
X671591Y406512D01*
X662540Y410261D01*
Y412970D01*
X612540D01*
Y376970D01*
X612540D01*
X613517Y375508D01*
X611057Y369570D01*
X616317Y356870D01*
X611057Y344170D01*
X616265Y331596D01*
X616394Y331284D01*
X616394Y331284D01*
X616763Y330393D01*
X618607Y324141D01*
X618223Y323215D01*
X637540D01*
Y318770D01*
X641985D01*
Y304613D01*
X644540D01*
X654551Y308759D01*
X657000Y309246D01*
X693308Y272938D01*
X704850Y268158D01*
X751840D01*
X763382Y272938D01*
X790052Y299608D01*
X794382Y310063D01*
X796838Y312002D01*
X800686Y312951D01*
X803910Y311615D01*
X813050Y315401D01*
X816610Y315960D01*
X820170Y315401D01*
X829310Y311615D01*
X832534Y312951D01*
X838964Y310116D01*
X842933Y300533D01*
X856710Y294827D01*
X868410Y299673D01*
X880110Y294827D01*
X892810Y300087D01*
X905510Y294827D01*
X918210Y300087D01*
X930910Y294827D01*
X943610Y300087D01*
X956310Y294827D01*
X969010Y300087D01*
X981710Y294827D01*
X994410Y300087D01*
X1007110Y294827D01*
X1019810Y300087D01*
X1032510Y294827D01*
X1045210Y300087D01*
X1057910Y294827D01*
X1070610Y300087D01*
X1083310Y294827D01*
X1096010Y300087D01*
X1108710Y294827D01*
X1121410Y300087D01*
X1134110Y294827D01*
X1146810Y300087D01*
X1159510Y294827D01*
X1172210Y300087D01*
X1184910Y294827D01*
X1197610Y300087D01*
X1210310Y294827D01*
X1224087Y300533D01*
X1229793Y314310D01*
Y328310D01*
X1224087Y342087D01*
X1221968Y342964D01*
X1226005Y352710D01*
X1221408Y363808D01*
X1210310Y368405D01*
X1201170Y364619D01*
X1197610Y364059D01*
X1194050Y364619D01*
X1184910Y368405D01*
X1178907Y365918D01*
X1175833Y373340D01*
Y396609D01*
X1179888Y406400D01*
X1173547Y421707D01*
X1158240Y428048D01*
X1142933Y421707D01*
X1136592Y406400D01*
X1142933Y391093D01*
X1143187Y390987D01*
Y386005D01*
X1138964Y383183D01*
X1134110Y385193D01*
X1121410Y379933D01*
X1108710Y385193D01*
X1096010Y379933D01*
X1083310Y385193D01*
X1070610Y379933D01*
X1057910Y385193D01*
X1045210Y379933D01*
X1032510Y385193D01*
X1019810Y379933D01*
X1007110Y385193D01*
X994410Y379933D01*
X981710Y385193D01*
X979833Y384416D01*
X976956Y388722D01*
X1001233Y412999D01*
X1007225Y411807D01*
X1012123Y399983D01*
X1027430Y393642D01*
X1042737Y399983D01*
X1049078Y415290D01*
X1047531Y419024D01*
X1047562Y419100D01*
Y429906D01*
X1051786Y432728D01*
X1052195Y432559D01*
Y447040D01*
X1056640D01*
Y451485D01*
X1071121D01*
X1068182Y458582D01*
X1061317Y461425D01*
X1057276Y463099D01*
X1059200Y467801D01*
X1063034Y469389D01*
X1063035Y469389D01*
X1063231Y469470D01*
X1069191Y471939D01*
X1073338Y481950D01*
Y484505D01*
X1059180D01*
Y488950D01*
X1054735D01*
Y508266D01*
X1053696Y507836D01*
X1047557Y509727D01*
X1046666Y510095D01*
X1033780Y515433D01*
X1021080Y510173D01*
X1008380Y515433D01*
X1002442Y512973D01*
X1000980Y513950D01*
Y513950D01*
X964980D01*
Y502656D01*
X959036Y500194D01*
X957662Y496875D01*
X949293Y488507D01*
X944600Y490451D01*
Y512800D01*
X943422D01*
Y523520D01*
X952100D01*
Y524697D01*
X961759D01*
X971550Y520642D01*
X986857Y526983D01*
X987307Y528068D01*
X990712Y529478D01*
X995492Y541020D01*
X990823Y552294D01*
X997062Y554878D01*
X1026571Y584388D01*
X1063839D01*
X1066661Y580164D01*
X1066492Y579755D01*
X1085850D01*
X1105208D01*
X1102996Y585095D01*
X1106509Y586551D01*
X1112374Y600710D01*
X1107114Y613410D01*
X1110598Y621823D01*
X1115371Y623562D01*
X1168483Y595966D01*
Y579120D01*
X1173260Y567587D01*
Y536340D01*
X1209260D01*
Y536340D01*
X1210722Y537317D01*
X1216660Y534857D01*
X1230437Y540563D01*
X1233935Y549011D01*
X1242060Y545645D01*
X1250037Y548949D01*
X1256404Y546851D01*
X1257449Y544329D01*
X1263015Y542024D01*
Y561340D01*
Y580657D01*
X1257449Y578351D01*
X1256404Y575829D01*
X1250037Y573731D01*
X1242060Y577035D01*
X1237767Y575256D01*
X1232982Y578773D01*
Y594360D01*
X1232890Y594583D01*
Y613130D01*
X1203877D01*
Y629920D01*
X1200984Y636904D01*
Y644709D01*
X1206064Y645720D01*
X1209095Y638404D01*
X1225550Y631588D01*
X1242005Y638404D01*
X1248821Y654860D01*
X1242005Y671315D01*
X1225550Y678131D01*
X1223050Y679802D01*
Y705860D01*
X1223050Y705860D01*
X1224492Y709860D01*
X1224250Y710443D01*
X1220350Y719860D01*
X1224492Y729860D01*
X1218944Y743254D01*
X1215560Y744656D01*
X1217531Y749415D01*
X1200550D01*
Y753860D01*
X1196105D01*
Y769377D01*
X1191068Y767290D01*
X1186844Y770113D01*
X1186844Y925830D01*
X1183674Y933484D01*
X1176020Y936654D01*
X1132840D01*
X1125186Y933484D01*
X1123539Y929506D01*
X1119505Y931177D01*
Y911860D01*
Y890690D01*
X1122016Y889012D01*
Y878778D01*
X1116936Y876013D01*
X1108075Y879683D01*
Y859790D01*
X1099185D01*
Y879683D01*
X1088261Y875158D01*
X1084224Y865412D01*
X1083311Y864499D01*
X1078329Y865490D01*
X1072764Y878924D01*
X1053630Y886850D01*
X1041749Y881928D01*
X1006246Y917431D01*
X1007238Y922413D01*
X1009807Y923477D01*
X1029588D01*
X1031433Y919023D01*
X1045210Y913317D01*
X1058096Y918654D01*
X1058987Y919023D01*
X1065126Y920914D01*
X1066165Y920483D01*
Y939800D01*
Y959117D01*
X1065126Y958686D01*
X1058987Y960577D01*
X1058096Y960946D01*
X1045210Y966283D01*
X1031433Y960577D01*
X1029588Y956123D01*
X1009807D01*
X996950Y961448D01*
X981643Y955107D01*
X979563Y950088D01*
X974581Y949097D01*
X968168Y955510D01*
X970112Y960203D01*
X970280D01*
X982794Y965386D01*
X1060264Y1042856D01*
X1061782Y1046521D01*
X1065447Y1055370D01*
Y1056829D01*
X1069671Y1059652D01*
X1070270Y1059404D01*
X1070705D01*
Y1073150D01*
X1075150D01*
Y1077595D01*
X1091935D01*
X1090087Y1082058D01*
X1093661Y1083539D01*
X1096989Y1091572D01*
X1102940Y1092666D01*
X1153048Y1042558D01*
X1153048Y1042558D01*
X1156429Y1041158D01*
X1164590Y1037777D01*
X1164590Y1037777D01*
X1176380D01*
Y1010100D01*
X1200593D01*
X1203416Y1005876D01*
X1200609Y999100D01*
X1207425Y982645D01*
X1223880Y975828D01*
X1240336Y982645D01*
X1247152Y999100D01*
X1240336Y1015555D01*
X1223880Y1022371D01*
X1221380Y1024042D01*
Y1050100D01*
X1221380Y1050100D01*
X1222822Y1054100D01*
X1222580Y1054683D01*
X1219456Y1062225D01*
X1220262Y1062558D01*
X1225042Y1074100D01*
X1220262Y1085642D01*
X1217581Y1086752D01*
X1217274Y1087494D01*
X1213890Y1088896D01*
X1215861Y1093655D01*
X1198880D01*
Y1098100D01*
X1194435D01*
Y1113617D01*
X1184838Y1109642D01*
X1180058Y1098100D01*
X1175894Y1094876D01*
X1173754Y1094689D01*
X1134222Y1134222D01*
X1130492Y1137952D01*
X1118950Y1142732D01*
X1100933D01*
X1098110Y1146956D01*
X1099102Y1149350D01*
X1093516Y1162836D01*
X1080030Y1168422D01*
X1070270D01*
X1068416Y1167654D01*
X1064116Y1178036D01*
X1052630Y1182793D01*
X1002142Y1233282D01*
X990600Y1238063D01*
D02*
G37*
G36*
X814705Y973455D02*
X804992D01*
Y970900D01*
X809139Y960889D01*
X814705Y958584D01*
Y973455D01*
D02*
G37*
G36*
X688340Y1090216D02*
X667292Y1081498D01*
X658574Y1060450D01*
X656631Y1057542D01*
X655340D01*
X641946Y1051994D01*
X636398Y1038600D01*
X641946Y1025206D01*
X655340Y1019658D01*
X660340D01*
X673734Y1025206D01*
X677810Y1035046D01*
X688340Y1030684D01*
X709388Y1039402D01*
X718106Y1060450D01*
X709388Y1081498D01*
X688340Y1090216D01*
D02*
G37*
G36*
X660340Y1215542D02*
X655340D01*
X641946Y1209994D01*
X636398Y1196600D01*
X641946Y1183206D01*
X655340Y1177658D01*
X656631D01*
X658574Y1174750D01*
X667292Y1153702D01*
X688340Y1144984D01*
X709388Y1153702D01*
X718106Y1174750D01*
X709388Y1195798D01*
X688340Y1204516D01*
X677810Y1200154D01*
X673734Y1209994D01*
X660340Y1215542D01*
D02*
G37*
G36*
X1223880Y1152372D02*
X1207425Y1145555D01*
X1200609Y1129100D01*
X1205039Y1118406D01*
X1203325Y1116540D01*
Y1102545D01*
X1215861D01*
X1215308Y1103881D01*
X1219196Y1107769D01*
X1223880Y1105829D01*
X1240336Y1112645D01*
X1247152Y1129100D01*
X1240336Y1145555D01*
X1223880Y1152372D01*
D02*
G37*
G36*
X1091935Y1068705D02*
X1079595D01*
Y1059404D01*
X1080030D01*
X1089750Y1063430D01*
X1091935Y1068705D01*
D02*
G37*
G36*
X1075055Y959117D02*
Y944245D01*
X1084768D01*
Y946800D01*
X1080621Y956811D01*
X1075055Y959117D01*
D02*
G37*
G36*
X1110615Y907415D02*
X1100902D01*
Y904860D01*
X1105049Y894849D01*
X1110615Y892543D01*
Y907415D01*
D02*
G37*
G36*
X1225550Y808131D02*
X1209095Y801315D01*
X1202279Y784860D01*
X1206708Y774165D01*
X1204995Y772300D01*
Y758305D01*
X1217531D01*
X1216978Y759641D01*
X1220866Y763529D01*
X1225550Y761589D01*
X1242005Y768405D01*
X1248821Y784860D01*
X1242005Y801315D01*
X1225550Y808131D01*
D02*
G37*
G36*
X736907Y765175D02*
X724535D01*
Y755462D01*
X724590D01*
X734601Y759609D01*
X736907Y765175D01*
D02*
G37*
G36*
X1110615Y931177D02*
X1105049Y928871D01*
X1100902Y918860D01*
Y916305D01*
X1110615D01*
Y931177D01*
D02*
G37*
G36*
X1084768Y935355D02*
X1075055D01*
Y920483D01*
X1080621Y922789D01*
X1084768Y932800D01*
Y935355D01*
D02*
G37*
%LPD*%
G36*
X1176020Y708950D02*
X1185690Y699280D01*
X1190161Y694809D01*
Y626110D01*
Y596900D01*
X1097280Y645160D01*
Y660400D01*
X1102360D01*
X1120140Y678180D01*
Y786130D01*
X1112520Y796290D01*
Y816610D01*
X1132840Y819150D01*
X1132840Y925830D01*
X1176020D01*
X1176020Y708950D01*
D02*
G37*
G36*
X1026346Y847276D02*
X1032873Y844573D01*
X1034496Y840656D01*
X1043494Y836929D01*
Y831849D01*
X1041116Y830864D01*
X1038855Y825404D01*
X1038261Y825158D01*
X1033737Y814235D01*
X1053630D01*
Y809790D01*
X1058075D01*
Y789897D01*
X1068998Y794421D01*
X1073036Y804168D01*
X1073949Y805081D01*
X1078931Y804090D01*
X1084496Y790656D01*
X1103630Y782730D01*
X1104466Y783076D01*
X1109316Y779587D01*
Y763518D01*
X1108950Y758590D01*
X1104236Y758590D01*
X1098315D01*
Y746760D01*
Y734930D01*
X1104236D01*
X1108950Y734930D01*
X1109316Y730002D01*
Y695410D01*
X1060850D01*
Y670582D01*
X1027740D01*
Y672465D01*
X1012660D01*
Y676910D01*
X1008215D01*
Y688740D01*
X997580D01*
Y676146D01*
X992500Y674042D01*
X980086Y686455D01*
X978730Y689730D01*
X975455Y691086D01*
X959636Y706906D01*
X950370Y710744D01*
X948774Y714375D01*
X927100D01*
Y723265D01*
X946375D01*
X944228Y728448D01*
X938198Y730946D01*
X938198Y733122D01*
X942795Y744220D01*
X939311Y752630D01*
X947994Y756226D01*
X953542Y769620D01*
X948281Y782320D01*
X953542Y795020D01*
X952374Y797840D01*
X955768Y802920D01*
X986510D01*
Y832538D01*
X990712Y834278D01*
X999401Y842967D01*
X1012257Y848293D01*
X1014337Y853312D01*
X1019319Y854304D01*
X1026346Y847276D01*
D02*
G37*
%LPC*%
G36*
X1089425Y758590D02*
X1078790D01*
Y751205D01*
X1089425D01*
Y758590D01*
D02*
G37*
G36*
X1049185Y805345D02*
X1033737D01*
X1038261Y794421D01*
X1049185Y789897D01*
Y805345D01*
D02*
G37*
G36*
X1027740Y688740D02*
X1017105D01*
Y681355D01*
X1027740D01*
Y688740D01*
D02*
G37*
G36*
X1089425Y742315D02*
X1078790D01*
Y734930D01*
X1089425D01*
Y742315D01*
D02*
G37*
%LPD*%
D10*
X751840Y284480D02*
X778510Y311150D01*
X704850Y284480D02*
X751840D01*
X645160Y344170D02*
X704850Y284480D01*
X713740Y303530D02*
X744220D01*
X668020Y349250D02*
X713740Y303530D01*
X668020Y349250D02*
Y353060D01*
X651510Y369570D02*
X668020Y353060D01*
X637540Y369570D02*
X651510D01*
X1031240Y486410D02*
X1033780Y488950D01*
X1031240Y419100D02*
Y486410D01*
X1027430Y415290D02*
X1031240Y419100D01*
X948690Y388620D02*
X953770D01*
X930910Y370840D02*
X948690Y388620D01*
X953770D02*
X1008380Y443230D01*
X930910Y352710D02*
Y370840D01*
X1008380Y443230D02*
Y488950D01*
X1122680Y1122680D02*
X1169670Y1075690D01*
X1121410Y1123950D02*
X1122680Y1122680D01*
X1118950Y1126410D02*
X1121410Y1123950D01*
X1087190Y1126410D02*
X1118950D01*
X1073150Y1123950D02*
X1084731D01*
X1087190Y1126410D01*
X1093470Y1111250D02*
X1107440D01*
X777240Y1098550D02*
X1023620D01*
X1024380Y1136650D02*
X1047750D01*
X1019740Y1132010D02*
X1024380Y1136650D01*
X966546Y1132010D02*
X1019740D01*
X961907Y1136650D02*
X966546Y1132010D01*
X796290Y1136650D02*
X961907D01*
X966836Y1153160D02*
X972826Y1147170D01*
X781050Y1153160D02*
X966836D01*
X777240Y1149350D02*
X781050Y1153160D01*
X997854Y1149350D02*
X1015640D01*
X995674Y1147170D02*
X997854Y1149350D01*
X972826Y1147170D02*
X995674D01*
X792480Y662940D02*
X845820D01*
X927100Y541020D02*
X979170D01*
X1164590Y1054100D02*
X1198880D01*
X1107440Y1111250D02*
X1164590Y1054100D01*
X744220Y303530D02*
X753110Y312420D01*
X970280Y619760D02*
Y659130D01*
X906780Y422910D02*
X971550Y487680D01*
X855980Y422910D02*
X906780D01*
X850900Y744220D02*
X867410D01*
X886460Y711200D02*
Y725170D01*
X867410Y744220D02*
X886460Y725170D01*
X845820Y662940D02*
X850900Y668020D01*
X792480Y655320D02*
Y662940D01*
X825500Y591820D02*
X850900Y617220D01*
X792480Y591820D02*
X825500D01*
X716280Y655320D02*
X754380Y617220D01*
X715010Y556260D02*
X716280Y557530D01*
X668020Y556260D02*
X715010D01*
X668020Y793750D02*
X718820D01*
X720090Y795020D01*
X951230Y415290D02*
X980440Y444500D01*
Y447040D01*
X906780Y370840D02*
X951230Y415290D01*
X905510Y352710D02*
Y368300D01*
X1215390Y595630D02*
X1216660Y594360D01*
Y561340D02*
Y594360D01*
X939800Y977900D02*
Y980440D01*
X927100Y495300D02*
Y541020D01*
X1019810Y600710D02*
X1085850D01*
X985520Y566420D02*
X1019810Y600710D01*
X927100Y566420D02*
X985520D01*
X1016000Y626110D02*
X1085850D01*
X981710Y591820D02*
X1016000Y626110D01*
X927100Y591820D02*
X981710D01*
X1234440Y406400D02*
Y452120D01*
X1159510Y352710D02*
Y405130D01*
X1158240Y406400D02*
X1159510Y405130D01*
X803910Y352710D02*
Y410130D01*
X829310Y352710D02*
Y410130D01*
X828040Y411400D02*
X829310Y410130D01*
X792480Y557530D02*
Y591820D01*
Y626110D02*
X793750Y624840D01*
X751840Y1162050D02*
X811530Y1221740D01*
X990600D01*
X1047750Y1164590D01*
Y1162050D02*
Y1164590D01*
X927100Y845820D02*
X979170D01*
X996950Y863600D01*
Y939800D02*
X1045210D01*
X817880Y864870D02*
X836930Y845820D01*
X850900D01*
Y871220D02*
Y891540D01*
X892810Y908050D02*
Y967740D01*
Y908050D02*
X927100Y873760D01*
Y871220D02*
Y873760D01*
X637540Y394970D02*
X660050D01*
X727710Y327310D01*
X753110Y312420D02*
Y327310D01*
X637540Y344170D02*
X645160D01*
X778510Y311150D02*
Y327310D01*
X1198880Y1074100D02*
X1208720D01*
X1169670Y1075690D02*
X1197290D01*
X1198880Y1074100D01*
X817880Y864870D02*
Y902970D01*
X844550Y929640D01*
X850900Y891540D02*
X869950Y910590D01*
Y965200D01*
X867410Y967740D02*
X869950Y965200D01*
X844550Y929640D02*
Y977900D01*
X720090Y871220D02*
X763270D01*
X814070Y820420D01*
X850900D01*
X849630Y796290D02*
X850900Y795020D01*
X720090Y820420D02*
X758190D01*
X808990Y769620D01*
X850900D01*
X720090Y845820D02*
X760730D01*
X810260Y796290D01*
X849630D01*
X1215390Y562610D02*
X1216660Y561340D01*
X927100Y820420D02*
X969010D01*
D11*
X1047750Y1111250D02*
X1093470D01*
X1023620Y1098550D02*
X1073150D01*
X751840Y1136650D02*
X796290D01*
X1015640Y1149350D02*
X1073150D01*
D12*
X920750Y977900D02*
X1038860Y859790D01*
X1053630Y809790D02*
X1103630Y859790D01*
X1053630Y809790D02*
Y818350D01*
X971550Y487680D02*
X980440D01*
X887730Y712470D02*
X906780Y693420D01*
X887730Y712470D02*
X888365Y713105D01*
X886460Y711200D02*
X887730Y712470D01*
X754380Y561340D02*
Y617220D01*
Y561340D02*
X812800Y502920D01*
X844550Y744220D02*
X850900D01*
X906780Y693420D02*
X927100D01*
X812800Y502920D02*
X855980Y459740D01*
Y422910D02*
Y459740D01*
X1186180Y579120D02*
Y629920D01*
X939800Y977900D02*
X970280D01*
X928370D02*
X939800D01*
X1038860Y859790D02*
X1053630D01*
X1188780Y685860D02*
X1200550D01*
X927100Y693420D02*
X946150D01*
X970280Y977900D02*
X1047750Y1055370D01*
Y1082040D01*
X812800Y502920D02*
X862330D01*
X886460Y527050D01*
Y711200D01*
D13*
X962660Y676910D02*
X988060Y651510D01*
X946150Y693420D02*
X962660Y676910D01*
X988060Y651510D02*
X1085850D01*
D14*
X802640Y411400D02*
X803910Y410130D01*
D15*
X1143870Y746760D02*
D03*
X962660Y676910D02*
D03*
D16*
X1093870Y746760D02*
D03*
X1012660Y676910D02*
D03*
D17*
X982980Y488950D02*
D03*
X1191260Y561340D02*
D03*
X855980Y422910D02*
D03*
X920750Y977900D02*
D03*
D18*
X1008380Y488950D02*
D03*
X1033780D02*
D03*
X1059180D02*
D03*
X1216660Y561340D02*
D03*
X1267460D02*
D03*
X1115060Y911860D02*
D03*
X830580Y422910D02*
D03*
X805180D02*
D03*
X779780D02*
D03*
X895350Y977900D02*
D03*
X869950D02*
D03*
X844550D02*
D03*
X819150D02*
D03*
X753110Y321310D02*
D03*
X776510D02*
D03*
X803910Y358710D02*
D03*
X827310D02*
D03*
X856710Y321310D02*
D03*
X880110D02*
D03*
X905510D02*
D03*
Y358710D02*
D03*
X930910Y321310D02*
D03*
Y358710D02*
D03*
X956310Y321310D02*
D03*
Y358710D02*
D03*
X981710Y321310D02*
D03*
Y358710D02*
D03*
X1007110Y321310D02*
D03*
Y358710D02*
D03*
X1032510Y321310D02*
D03*
Y358710D02*
D03*
X1057910Y321310D02*
D03*
Y358710D02*
D03*
X1083310Y321310D02*
D03*
Y358710D02*
D03*
X1108710Y321310D02*
D03*
Y358710D02*
D03*
X1134110Y321310D02*
D03*
Y358710D02*
D03*
X1159510Y321310D02*
D03*
Y358710D02*
D03*
X1184910Y321310D02*
D03*
X1210310D02*
D03*
D19*
X1215390Y595630D02*
D03*
X668020Y556260D02*
D03*
X955040Y927100D02*
D03*
X927100Y495300D02*
D03*
X1140460Y911860D02*
D03*
X668020Y793750D02*
D03*
X969010Y820420D02*
D03*
D20*
X1242060Y561340D02*
D03*
D21*
X927100Y541020D02*
D03*
D22*
Y566420D02*
D03*
Y591820D02*
D03*
Y617220D02*
D03*
Y642620D02*
D03*
Y668020D02*
D03*
Y693420D02*
D03*
Y718820D02*
D03*
Y769620D02*
D03*
Y795020D02*
D03*
Y820420D02*
D03*
Y845820D02*
D03*
Y871220D02*
D03*
X850900Y541020D02*
D03*
Y617220D02*
D03*
Y642620D02*
D03*
Y668020D02*
D03*
Y693420D02*
D03*
Y718820D02*
D03*
Y744220D02*
D03*
Y769620D02*
D03*
Y795020D02*
D03*
Y820420D02*
D03*
Y845820D02*
D03*
Y871220D02*
D03*
D23*
X927100Y744220D02*
D03*
X850900Y566420D02*
D03*
Y591820D02*
D03*
X727710Y352710D02*
D03*
X753110D02*
D03*
X778510D02*
D03*
X803910Y327310D02*
D03*
X829310D02*
D03*
X854710Y352710D02*
D03*
X880110D02*
D03*
X1184910D02*
D03*
X1210310D02*
D03*
D24*
X1103630Y859790D02*
D03*
Y809790D02*
D03*
X1053630Y859790D02*
D03*
Y809790D02*
D03*
D25*
X1234440Y477520D02*
D03*
Y452120D02*
D03*
D26*
X1056640Y447040D02*
D03*
X980440D02*
D03*
X1027430Y415290D02*
D03*
X951230D02*
D03*
X792480Y557530D02*
D03*
X716280D02*
D03*
Y591820D02*
D03*
X792480D02*
D03*
X716280Y626110D02*
D03*
X792480D02*
D03*
X1234440Y406400D02*
D03*
X1158240D02*
D03*
X996950Y939800D02*
D03*
Y863600D02*
D03*
X792480Y655320D02*
D03*
X716280D02*
D03*
X971550Y542290D02*
D03*
Y618490D02*
D03*
D27*
X1070610Y939800D02*
D03*
X1045210D02*
D03*
D28*
X1075150Y1149350D02*
D03*
Y1073150D02*
D03*
X1045750Y1164550D02*
D03*
Y1083350D02*
D03*
X779240Y1151890D02*
D03*
Y1121410D02*
D03*
Y1098550D02*
D03*
Y1073150D02*
D03*
X746840Y1162050D02*
D03*
Y1085850D02*
D03*
Y1136650D02*
D03*
Y1111250D02*
D03*
D29*
X1075150Y1125950D02*
D03*
Y1096550D02*
D03*
X1045750Y1134650D02*
D03*
Y1113250D02*
D03*
D30*
X984250Y1174750D02*
D03*
Y1060450D02*
D03*
X688340Y1174750D02*
D03*
Y1060450D02*
D03*
D31*
X953750Y1196600D02*
D03*
Y1038600D02*
D03*
X657840Y1196600D02*
D03*
Y1038600D02*
D03*
D32*
X1085850Y676910D02*
D03*
D33*
Y651510D02*
D03*
Y626110D02*
D03*
Y600710D02*
D03*
Y575310D02*
D03*
D34*
X727710Y327310D02*
D03*
D35*
X637540Y394970D02*
D03*
D36*
Y369570D02*
D03*
Y344170D02*
D03*
Y318770D02*
D03*
D37*
X1198880Y1074100D02*
D03*
Y1054100D02*
D03*
X1200550Y729860D02*
D03*
Y709860D02*
D03*
D38*
X1198880Y1030100D02*
D03*
X1200550Y685860D02*
D03*
D39*
X1198880Y1098100D02*
D03*
X1200550Y753860D02*
D03*
D40*
X1223880Y999100D02*
D03*
Y1129100D02*
D03*
X1225550Y654860D02*
D03*
Y784860D02*
D03*
D41*
X720090Y871220D02*
D03*
D42*
Y845820D02*
D03*
Y820420D02*
D03*
Y795020D02*
D03*
Y769620D02*
D03*
M02*
